<?xml version="1.0" encoding="UTF-8"?>
<svg version="1.1" xmlns="http://www.w3.org/2000/svg" width="1248" height="832">
<path d="M0 0 C411.84 0 823.68 0 1248 0 C1248 274.56 1248 549.12 1248 832 C836.16 832 424.32 832 0 832 C0 557.44 0 282.88 0 0 Z " fill="#FEFEFE" transform="translate(0,0)"/>
<path d="M0 0 C13.48336252 6.74168126 13.48336252 6.74168126 18.09375 9.5234375 C19.12927002 10.14371826 20.16479004 10.76399902 21.23168945 11.40307617 C22.31023193 12.05381104 23.38877441 12.7045459 24.5 13.375 C26.87687778 14.79898213 29.25635135 16.21857883 31.63671875 17.63671875 C32.24227097 17.99766129 32.84782318 18.35860382 33.47172546 18.73048401 C40.03734965 22.6337058 46.67133722 26.41474167 53.3125 30.1875 C62.51001267 35.41604998 71.65787392 40.71875704 80.75268555 46.12426758 C90.09027364 51.6663396 99.50157605 57.07870772 108.9140625 62.4921875 C109.90921875 63.09313232 110.904375 63.69407715 111.9296875 64.31323242 C114.97900056 66.09538562 114.97900056 66.09538562 118.4140625 67.2121582 C122.2212393 68.7417072 124.34048051 69.84759878 127 73 C129.0084267 80.21725324 128.11887036 88.04791307 127.75 95.4375 C127.68977211 97.52523815 127.63502526 99.61314209 127.5859375 101.70117188 C127.45402055 106.80488335 127.24721933 111.90062582 127 117 C123.6205323 116.22179133 121.01676083 115.04033492 117.984375 113.33203125 C116.9931665 112.77588135 116.00195801 112.21973145 114.98071289 111.64672852 C113.91457764 111.04143311 112.84844238 110.4361377 111.75 109.8125 C110.08022095 108.87071899 110.08022095 108.87071899 108.37670898 107.90991211 C98.91566569 102.55731367 89.52180871 97.09151733 80.14453125 91.59375 C72.47861315 87.1017779 64.77847531 82.66957158 57.07836914 78.23657227 C50.03774523 74.18168923 43.01830914 70.09401367 36 66 C35.67 113.19 35.34 160.38 35 209 C23.45 209 11.9 209 0 209 C0 140.03 0 71.06 0 0 Z " fill="#9BAA8D" transform="translate(518,218)"/>
<path d="M0 0 C11.55 0 23.1 0 35 0 C35 68.64 35 137.28 35 208 C29.97377355 206.32459118 26.00993719 204.4019133 21.5625 201.6875 C14.7453261 197.60095997 7.86840834 193.64042658 0.9375 189.75 C-7.08476297 185.23843688 -15.05946637 180.65386114 -23 176 C-31.68187859 170.91318641 -40.41001143 165.91832531 -49.1796875 160.98461914 C-59.89597977 154.94842464 -70.53993836 148.78781841 -81.18359375 142.62475586 C-84.4502276 140.74026832 -87.72565377 138.87105499 -91 137 C-91 122.15 -91 107.3 -91 92 C-87.28770017 93.48491993 -84.09399307 94.96807308 -80.640625 96.90625 C-79.61638428 97.47988281 -78.59214355 98.05351562 -77.53686523 98.64453125 C-76.45219971 99.25683594 -75.36753418 99.86914062 -74.25 100.5 C-73.124729 101.13292969 -71.99945801 101.76585937 -70.84008789 102.41796875 C-62.60870959 107.06073686 -54.44530809 111.8062508 -46.31884766 116.62939453 C-41.59938888 119.41893355 -36.86094838 122.17608415 -32.125 124.9375 C-31.20517334 125.47439453 -30.28534668 126.01128906 -29.33764648 126.56445312 C-19.90483319 132.06577465 -10.45045685 137.52868287 -1 143 C-0.67 95.81 -0.34 48.62 0 0 Z " fill="#F0AD8F" transform="translate(675,241)"/>
<path d="M0 0 C4.393125 -0.0825 8.78625 -0.165 13.3125 -0.25 C14.67415283 -0.28641602 16.03580566 -0.32283203 17.4387207 -0.36035156 C26.52482402 -0.44216674 34.9427285 0.72509733 42.4375 6.25 C48.56236493 12.82302578 49.73953416 18.5979214 49.44140625 27.58984375 C48.53466287 34.59503822 45.51739204 39.07149236 40.0625 43.4375 C34.67777822 47.31848018 29.4069569 48.25134151 22.8515625 48.1953125 C21.64838379 48.19031738 20.44520508 48.18532227 19.20556641 48.18017578 C16.93818604 48.15286377 16.93818604 48.15286377 14.625 48.125 C7.385625 48.063125 7.385625 48.063125 0 48 C0 32.16 0 16.32 0 0 Z " fill="#9CAB90" transform="translate(627,498)"/>
<path d="M0 0 C5.70310022 3.65309316 10.28444293 8.9654164 12.29296875 15.46875 C13.16880538 23.33091142 12.95613601 30.84214389 8.29296875 37.46875 C2.73409758 43.29605761 -2.34573642 47.07938222 -10.50390625 47.671875 C-18.48469594 47.7985542 -25.24629645 47.39114828 -31.51953125 42.09375 C-32.60234375 40.794375 -32.60234375 40.794375 -33.70703125 39.46875 C-34.42890625 38.64375 -35.15078125 37.81875 -35.89453125 36.96875 C-40.84677009 30.13807574 -40.38234235 22.54617236 -39.70703125 14.46875 C-38.06031111 8.0918539 -31.92464607 3.14134296 -26.70703125 -0.53125 C-18.22199817 -4.06477456 -8.35595688 -3.81675029 0 0 Z " fill="#9DAD92" transform="translate(475.70703125,499.53125)"/>
<path d="M0 0 C3.3 0 6.6 0 10 0 C10.41362793 0.74161377 10.82725586 1.48322754 11.25341797 2.24731445 C12.79182082 5.00421358 14.331328 7.76049217 15.87158203 10.51635742 C16.53738882 11.70816778 17.20275769 12.9002229 17.86767578 14.0925293 C18.82468742 15.80842684 19.78341652 17.52336614 20.7421875 19.23828125 C21.3182373 20.26993408 21.89428711 21.30158691 22.48779297 22.36450195 C23.58938152 24.2843677 24.77219623 26.15829434 26 28 C26.66 28 27.32 28 28 28 C33.28 18.76 38.56 9.52 44 0 C47.3 0 50.6 0 54 0 C54 15.84 54 31.68 54 48 C50.7 48 47.4 48 44 48 C43.67 38.76 43.34 29.52 43 20 C39.46847508 26.44608083 39.46847508 26.44608083 35.93994141 32.89379883 C35.49827637 33.69841553 35.05661133 34.50303223 34.6015625 35.33203125 C34.15119629 36.15421143 33.70083008 36.9763916 33.23681641 37.82348633 C32.23137804 39.59282762 31.12884896 41.30672656 30 43 C27.12890625 43.55859375 27.12890625 43.55859375 24 43 C21.83984375 40.47265625 21.83984375 40.47265625 19.9375 37.0625 C19.30714844 35.96035156 18.67679688 34.85820313 18.02734375 33.72265625 C17.35832031 32.49417969 16.68929687 31.26570312 16 30 C14.35 27.03 12.7 24.06 11 21 C10.67 29.91 10.34 38.82 10 48 C6.7 48 3.4 48 0 48 C0 32.16 0 16.32 0 0 Z " fill="#9DAE90" transform="translate(501,498)"/>
<path d="M0 0 C10 0 10 0 12.234375 1.58984375 C12.98460937 2.75193359 12.98460937 2.75193359 13.75 3.9375 C14.37390625 4.83082031 14.9978125 5.72414063 15.640625 6.64453125 C16.17139648 7.42111084 16.17139648 7.42111084 16.71289062 8.21337891 C19.44356462 12.00379475 22.51133121 15.53743054 25.5 19.125 C27.645 21.72375 29.79 24.3225 32 27 C32.33 18.09 32.66 9.18 33 0 C36.63 0 40.26 0 44 0 C44 15.84 44 31.68 44 48 C34 48 34 48 31.00390625 45.39453125 C30.15837817 44.22277318 29.34557796 43.02688199 28.5625 41.8125 C27.65391325 40.53311207 26.742368 39.25582089 25.828125 37.98046875 C25.36986328 37.32353027 24.91160156 36.6665918 24.43945312 35.98974609 C22.07325057 32.71896068 19.44711791 29.68041396 16.8125 26.625 C15.224375 24.76875 13.63625 22.9125 12 21 C11.67 29.91 11.34 38.82 11 48 C7.37 48 3.74 48 0 48 C0 32.16 0 16.32 0 0 Z " fill="#F4AF92" transform="translate(710,498)"/>
<path d="M0 0 C10 0 10 0 12.77734375 2.38671875 C13.49019531 3.47597656 14.20304687 4.56523437 14.9375 5.6875 C15.75404332 6.8775949 16.57449629 8.06501488 17.3984375 9.25 C17.81577148 9.86617188 18.23310547 10.48234375 18.66308594 11.1171875 C20.92930759 14.3087692 23.49703245 17.23513968 26.0625 20.1875 C30.87529982 25.75059964 30.87529982 25.75059964 32 28 C32.33 18.76 32.66 9.52 33 0 C36.63 0 40.26 0 44 0 C44 15.84 44 31.68 44 48 C34 48 34 48 31.00390625 45.6484375 C30.15872599 44.58141201 29.34579244 43.48825021 28.5625 42.375 C28.1193042 41.80048096 27.6761084 41.22596191 27.21948242 40.6340332 C26.28004174 39.41205149 25.35358854 38.17999045 24.43945312 36.93896484 C22.49903478 34.32519237 20.47074375 31.78563562 18.44042969 29.24145508 C16.27481444 26.50910339 14.1404998 23.75207117 12 21 C11.67 29.91 11.34 38.82 11 48 C7.37 48 3.74 48 0 48 C0 32.16 0 16.32 0 0 Z " fill="#9CAC90" transform="translate(379,498)"/>
<path d="M0 0 C2.83203125 0.03255208 5.6640625 0.06510417 8.49609375 0.09765625 C12.93277225 8.60613259 16.81829113 17.3564125 20.70922852 26.12304688 C21.81931321 28.62178514 22.93586035 31.11757149 24.05273438 33.61328125 C24.7595053 35.20164912 25.46589962 36.79018463 26.171875 38.37890625 C26.5061702 39.12466919 26.84046539 39.87043213 27.18489075 40.63879395 C29.49609375 45.86850717 29.49609375 45.86850717 29.49609375 48.09765625 C25.53609375 48.09765625 21.57609375 48.09765625 17.49609375 48.09765625 C14.49609375 40.34765625 14.49609375 40.34765625 14.49609375 38.09765625 C6.90609375 38.42765625 -0.68390625 38.75765625 -8.50390625 39.09765625 C-9.82390625 42.06765625 -11.14390625 45.03765625 -12.50390625 48.09765625 C-16.13390625 48.09765625 -19.76390625 48.09765625 -23.50390625 48.09765625 C-21.51498801 41.85541734 -19.22401829 35.90845698 -16.52734375 29.94140625 C-16.1566275 29.11306274 -15.78591125 28.28471924 -15.40396118 27.43127441 C-14.6277917 25.69936149 -13.84955997 23.96837139 -13.06933594 22.23828125 C-11.87053566 19.57908852 -10.67893779 16.91675388 -9.48828125 14.25390625 C-8.73088573 12.56621906 -7.97308794 10.87871232 -7.21484375 9.19140625 C-6.85756195 8.39359741 -6.50028015 7.59578857 -6.13217163 6.77380371 C-3.12660189 0.12194235 -3.12660189 0.12194235 0 0 Z " fill="#9DAD90" transform="translate(588.50390625,497.90234375)"/>
<path d="M0 0 C12.54 0 25.08 0 38 0 C38 2.97 38 5.94 38 9 C29.42 9 20.84 9 12 9 C12 12.3 12 15.6 12 19 C19.59 19 27.18 19 35 19 C35 21.97 35 24.94 35 28 C27.41 28 19.82 28 12 28 C12 31.63 12 35.26 12 39 C20.91 39 29.82 39 39 39 C39 41.97 39 44.94 39 48 C26.13 48 13.26 48 0 48 C0 32.16 0 16.32 0 0 Z " fill="#F5B296" transform="translate(770,498)"/>
<path d="M0 0 C13.86 0 27.72 0 42 0 C42 2.97 42 5.94 42 9 C36.72 9 31.44 9 26 9 C26 21.87 26 34.74 26 48 C22.37 48 18.74 48 15 48 C15 35.13 15 22.26 15 9 C10.05 9 5.1 9 0 9 C0 6.03 0 3.06 0 0 Z " fill="#F3AE92" transform="translate(815,498)"/>
<path d="M0 0 C4.87995132 2.26569169 7.63239735 5.17373306 10 10 C10.90107455 15.63930927 10.26166412 20.21622595 7 25 C3.30640619 28.72386917 0.09990839 30.75295195 -5.1875 31.375 C-10.03791732 30.89790977 -13.34977427 29.2137857 -17 26 C-20.95861332 20.65541909 -20.79127254 15.41713334 -20 9 C-15.51493504 -0.13031081 -9.52542681 -1.13641151 0 0 Z " fill="#FBFCFB" transform="translate(467,507)"/>
<path d="M0 0 C17.15051274 -0.7146047 17.15051274 -0.7146047 22.58203125 3.58984375 C26.04722299 7.03594352 27.16418951 9.5969669 27.375 14.4375 C27.21555719 18.61074221 26.37124463 21.48401658 24 25 C18.78976201 29.81947014 14.65652261 30.13961383 7.8125 30.0625 C5.234375 30.041875 2.65625 30.02125 0 30 C0 20.1 0 10.2 0 0 Z " fill="#FAFBF9" transform="translate(638,507)"/>
<path d="M0 0 C12.66629785 -0.41757026 12.66629785 -0.41757026 17 3 C17.3125 6 17.3125 6 17 9 C17 9.99 17 10.98 17 12 C17.33 12.33 17.66 12.66 18 13 C18.3125 15.875 18.3125 15.875 18 19 C15.55726097 21.62548758 14.1543156 21.98690761 10.546875 22.29296875 C7.03125 22.1953125 3.515625 22.09765625 0 22 C0 14.74 0 7.48 0 0 Z " fill="#A5B39B" transform="translate(453,563)"/>
<path d="M0 0 C1.07765625 0.03609375 2.1553125 0.0721875 3.265625 0.109375 C4.49539063 0.17898438 4.49539063 0.17898438 5.75 0.25 C5.83710289 3.35398978 5.89042309 6.45766548 5.9375 9.5625 C5.96263672 10.44357422 5.98777344 11.32464844 6.01367188 12.23242188 C6.02333984 13.07998047 6.03300781 13.92753906 6.04296875 14.80078125 C6.0586792 15.58106689 6.07438965 16.36135254 6.09057617 17.1652832 C5.66141651 19.79223254 4.84154574 20.65240441 2.75 22.25 C0.33984375 22.6484375 0.33984375 22.6484375 -2.3125 22.625 C-3.19035156 22.63273438 -4.06820312 22.64046875 -4.97265625 22.6484375 C-5.72417969 22.51695312 -6.47570312 22.38546875 -7.25 22.25 C-7.91 21.26 -8.57 20.27 -9.25 19.25 C-5.25 19.25 -5.25 19.25 -2.1875 19.5625 C-1.218125 19.459375 -0.24875 19.35625 0.75 19.25 C2.6854148 16.85943058 2.6854148 16.85943058 3.75 14.25 C2.76 14.58 1.77 14.91 0.75 15.25 C-3.10310248 15.60028204 -5.38547123 15.80418511 -8.6875 13.6875 C-10.85396028 10.30782196 -10.81288002 8.19016013 -10.25 4.25 C-7.19727018 0.15061995 -4.98976387 -0.21694626 0 0 Z " fill="#A4B19A" transform="translate(561.25,568.75)"/>
<path d="M0 0 C3.06458538 2.04305692 3.82153128 3.44079802 4.9375 6.9375 C5.01221891 10.59872681 4.21363944 12.1304674 2 15 C-1.21804148 16.60902074 -4.51947705 16.59842983 -8 16 C-11.2883921 13.28707652 -11.90851499 11.65183071 -12.5 7.4375 C-12 4 -12 4 -10.5 1.5625 C-6.98401025 -0.63499359 -4.04059653 -0.81309745 0 0 Z " fill="#A1B098" transform="translate(519,569)"/>
<path d="M0 0 C4.42444513 0.77621844 5.89242037 2.06489382 8.5625 5.625 C8.5625 6.945 8.5625 8.265 8.5625 9.625 C4.2725 9.625 -0.0175 9.625 -4.4375 9.625 C-4.4375 10.615 -4.4375 11.605 -4.4375 12.625 C-3.2 12.79 -1.9625 12.955 -0.6875 13.125 C0.00859375 13.2178125 0.7046875 13.310625 1.421875 13.40625 C3.86708395 13.69277357 3.86708395 13.69277357 7.5625 13.625 C6.5725 15.11 6.5725 15.11 5.5625 16.625 C0.63020767 17.27185801 -1.34198224 17.40099175 -5.4375 14.5 C-7.4375 11.625 -7.4375 11.625 -8 8.625 C-7.02442766 3.42194751 -5.30436776 0.9644305 0 0 Z " fill="#AAB9A3" transform="translate(770.4375,568.375)"/>
<path d="M0 0 C4.42444513 0.77621844 5.89242037 2.06489382 8.5625 5.625 C8.5625 6.945 8.5625 8.265 8.5625 9.625 C4.2725 9.625 -0.0175 9.625 -4.4375 9.625 C-3.4475 10.945 -2.4575 12.265 -1.4375 13.625 C1.02042029 13.95843551 1.02042029 13.95843551 3.5625 13.625 C4.8825 13.625 6.2025 13.625 7.5625 13.625 C6.5 15.125 6.5 15.125 4.5625 16.625 C0.15194623 17.27841537 -1.7281002 17.13818284 -5.375 14.5 C-7.4375 11.625 -7.4375 11.625 -8 8.625 C-7.02442766 3.42194751 -5.30436776 0.9644305 0 0 Z " fill="#A0B197" transform="translate(483.4375,568.375)"/>
<path d="M0 0 C3.91949464 2.78490409 4.01163532 4.05817662 5 9 C0.71 9 -3.58 9 -8 9 C-7.67 9.99 -7.34 10.98 -7 12 C-1.94990405 12.93786082 -1.94990405 12.93786082 3 12 C2.34 13.32 1.68 14.64 1 16 C-6.26605505 16.60550459 -6.26605505 16.60550459 -9.5 13.9375 C-11.37276489 10.27000208 -11.59172793 8.06812955 -11 4 C-8.11188513 -0.5054592 -5.11821063 -0.73117295 0 0 Z " fill="#A8B59F" transform="translate(636,569)"/>
<path d="M0 0 C3.91949464 2.78490409 4.01163532 4.05817662 5 9 C0.71 9 -3.58 9 -8 9 C-7.67 9.99 -7.34 10.98 -7 12 C-1.94990405 12.93786082 -1.94990405 12.93786082 3 12 C3 12.99 3 13.98 3 15 C-0.21804148 16.60902074 -3.51947705 16.59842983 -7 16 C-10.2883921 13.28707652 -10.90851499 11.65183071 -11.5 7.4375 C-11 4 -11 4 -9.4375 1.5625 C-6.05782196 -0.60396028 -3.94016013 -0.56288002 0 0 Z " fill="#A1B29B" transform="translate(740,569)"/>
<path d="M0 0 C0.99 0 1.98 0 3 0 C3.50615298 1.26839526 4.00469099 2.53983102 4.5 3.8125 C4.91765625 4.87404297 4.91765625 4.87404297 5.34375 5.95703125 C6 8 6 8 6 11 C6.66 11 7.32 11 8 11 C8.17015625 10.28972656 8.3403125 9.57945312 8.515625 8.84765625 C8.75796875 7.92855469 9.0003125 7.00945313 9.25 6.0625 C9.48203125 5.14597656 9.7140625 4.22945312 9.953125 3.28515625 C10.29859375 2.53105469 10.6440625 1.77695312 11 1 C12.32 0.67 13.64 0.34 15 0 C16.32 3.3 17.64 6.6 19 10 C20.65 6.7 22.3 3.4 24 0 C24.66 0 25.32 0 26 0 C25.34309381 3.78239671 24.279869 7.21841526 22.9375 10.8125 C22.57527344 11.78832031 22.21304688 12.76414062 21.83984375 13.76953125 C21.42412109 14.87361328 21.42412109 14.87361328 21 16 C19.68 16 18.36 16 17 16 C16.79503906 15.36191406 16.59007812 14.72382812 16.37890625 14.06640625 C16.10949219 13.24011719 15.84007812 12.41382813 15.5625 11.5625 C15.29566406 10.73878906 15.02882813 9.91507813 14.75390625 9.06640625 C14.17844506 7.03780412 14.17844506 7.03780412 13 6 C11.68 9.3 10.36 12.6 9 16 C7.68 15.67 6.36 15.34 5 15 C3.515625 12.12890625 3.515625 12.12890625 2.25 8.5625 C1.82203125 7.38816406 1.3940625 6.21382812 0.953125 5.00390625 C0 2 0 2 0 0 Z " fill="#A9B8A2" transform="translate(676,569)"/>
<path d="M0 0 C4.95 0 9.9 0 15 0 C15 0.99 15 1.98 15 3 C11.04 3 7.08 3 3 3 C3 5.31 3 7.62 3 10 C6.3 10 9.6 10 13 10 C13 10.66 13 11.32 13 12 C9.7 12 6.4 12 3 12 C3 14.64 3 17.28 3 20 C7.29 20 11.58 20 16 20 C16 20.66 16 21.32 16 22 C10.72 22 5.44 22 0 22 C0 14.74 0 7.48 0 0 Z " fill="#A3B29B" transform="translate(586,563)"/>
<path d="M0 0 C2.33088789 2.87854637 3.83224797 5.61984828 5.1875 9.0625 C5.53167969 9.91972656 5.87585938 10.77695312 6.23046875 11.66015625 C7 14 7 14 7 17 C2.71 17 -1.58 17 -6 17 C-5.2709437 12.62566218 -4.63152126 9.64034012 -3 5.6875 C-2.649375 4.82511719 -2.29875 3.96273437 -1.9375 3.07421875 C-1 1 -1 1 0 0 Z " fill="#F9FAF6" transform="translate(591,510)"/>
<path d="M0 0 C0.66 0 1.32 0 2 0 C2 2.64 2 5.28 2 8 C2.66 7.67 3.32 7.34 4 7 C10.21847878 6.42421493 10.21847878 6.42421493 13.2109375 8.62890625 C15.52383561 11.69425375 15.4149443 13.45628106 15.25 17.25 C15.21390625 18.32765625 15.1778125 19.4053125 15.140625 20.515625 C15.07101562 21.74539063 15.07101562 21.74539063 15 23 C14.01 23 13.02 23 12 23 C11.93941406 22.14535156 11.87882813 21.29070313 11.81640625 20.41015625 C11.73261719 19.30542969 11.64882813 18.20070313 11.5625 17.0625 C11.48128906 15.96035156 11.40007813 14.85820313 11.31640625 13.72265625 C11.29581916 11.08890097 11.29581916 11.08890097 10 10 C7.54190002 9.7499227 7.54190002 9.7499227 5 10 C2.41073669 12.58926331 2.62601957 14.02705279 2.375 17.625 C2.30023437 18.62789062 2.22546875 19.63078125 2.1484375 20.6640625 C2.09945312 21.43492187 2.05046875 22.20578125 2 23 C1.34 23 0.68 23 0 23 C0 15.41 0 7.82 0 0 Z " fill="#AABAA3" transform="translate(708,562)"/>
<path d="M0 0 C2.9375 0.8125 2.9375 0.8125 4.9375 2.8125 C5.271228 5.94954316 5.46599028 7.97804166 3.75 10.6875 C1.28242892 12.21909584 -0.20769831 12.24072025 -3.0625 11.8125 C-4.875 10.6875 -4.875 10.6875 -6.0625 8.8125 C-6.45954314 5.63615485 -6.56183741 3.67246999 -4.9375 0.875 C-3.0625 -0.1875 -3.0625 -0.1875 0 0 Z " fill="#FBFAF8" transform="translate(516.0625,571.1875)"/>
<path d="M0 0 C1.875 1.1875 1.875 1.1875 3 3 C3.4375 5.5 3.4375 5.5 3 8 C0.87208838 10.2855347 -0.47408328 10.92303658 -3.5625 11.375 C-6 11 -6 11 -7.8125 9.8125 C-9.42525784 7.35092224 -9.4334014 5.88934264 -9 3 C-6.73529086 -0.64869805 -4.03159541 -0.50394943 0 0 Z " fill="#F9F9F7" transform="translate(562,571)"/>
<path d="M0 0 C0.99 0 1.98 0 3 0 C3.67354499 1.43429001 4.33859701 2.87257057 5 4.3125 C5.556875 5.51326172 5.556875 5.51326172 6.125 6.73828125 C7 9 7 9 7 12 C7.66 12 8.32 12 9 12 C9.19335938 11.38511719 9.38671875 10.77023437 9.5859375 10.13671875 C9.84632813 9.32847656 10.10671875 8.52023437 10.375 7.6875 C10.63023437 6.88699219 10.88546875 6.08648438 11.1484375 5.26171875 C12 3 12 3 14 0 C14.66 0 15.32 0 16 0 C15.02079688 4.28379097 13.32407853 8.1139108 11.5625 12.125 C11.09360352 13.21748047 11.09360352 13.21748047 10.61523438 14.33203125 C8.24422722 19.75577278 8.24422722 19.75577278 6 22 C2.875 22.125 2.875 22.125 0 22 C-0.33 21.34 -0.66 20.68 -1 20 C1.31 19.34 3.62 18.68 6 18 C5.37802716 14.07513692 4.15057625 10.88994983 2.4375 7.3125 C0 2.20963173 0 2.20963173 0 0 Z " fill="#A7B7A1" transform="translate(658,569)"/>
<path d="M0 0 C10.29305913 -0.49014567 10.29305913 -0.49014567 13.34375 1.625 C15.48467716 4.69500875 15.41110849 6.54450483 15.25 10.25 C15.21390625 11.32765625 15.1778125 12.4053125 15.140625 13.515625 C15.07101562 14.74539063 15.07101562 14.74539063 15 16 C14.01 16 13.02 16 12 16 C11.93941406 15.14535156 11.87882813 14.29070313 11.81640625 13.41015625 C11.73261719 12.30542969 11.64882813 11.20070313 11.5625 10.0625 C11.48128906 8.96035156 11.40007813 7.85820313 11.31640625 6.72265625 C11.29581916 4.08890097 11.29581916 4.08890097 10 3 C7.54190002 2.7499227 7.54190002 2.7499227 5 3 C2.41073669 5.58926331 2.62601957 7.02705279 2.375 10.625 C2.30023437 11.62789062 2.22546875 12.63078125 2.1484375 13.6640625 C2.09945312 14.43492187 2.05046875 15.20578125 2 16 C1.34 16 0.68 16 0 16 C0 10.72 0 5.44 0 0 Z " fill="#A3B299" transform="translate(530,569)"/>
<path d="M0 0 C1.79133978 -0.05391993 3.58313899 -0.09275571 5.375 -0.125 C6.37273437 -0.14820313 7.37046875 -0.17140625 8.3984375 -0.1953125 C11 0 11 0 13 2 C12.75 4.0625 12.75 4.0625 12 6 C9.47524538 7.26237731 7.68799534 7.09856404 4.875 7.0625 C3.96492188 7.05347656 3.05484375 7.04445313 2.1171875 7.03515625 C1.41851562 7.02355469 0.71984375 7.01195312 0 7 C0 4.69 0 2.38 0 0 Z " fill="#FAFAF7" transform="translate(456,576)"/>
<path d="M0 0 C3 1 3 1 4.38671875 3.28515625 C5.59114583 5.85677083 6.79557292 8.42838542 8 11 C9.65 7.37 11.3 3.74 13 0 C13.99 0.33 14.98 0.66 16 1 C14.02 5.95 12.04 10.9 10 16 C8.68 16 7.36 16 6 16 C4.99303432 13.89915791 3.9946411 11.79420511 3 9.6875 C2.443125 8.51574219 1.88625 7.34398437 1.3125 6.13671875 C0 3 0 3 0 0 Z " fill="#9FB297" transform="translate(606,569)"/>
<path d="M0 0 C1.62463842 -0.05395478 3.24978541 -0.09277195 4.875 -0.125 C5.77992188 -0.14820313 6.68484375 -0.17140625 7.6171875 -0.1953125 C10 0 10 0 12 2 C11.46428571 5.53571429 11.46428571 5.53571429 10 7 C8.31391034 7.07205511 6.62499341 7.08386068 4.9375 7.0625 C4.01839844 7.05347656 3.09929687 7.04445313 2.15234375 7.03515625 C1.44207031 7.02355469 0.73179687 7.01195312 0 7 C0 4.69 0 2.38 0 0 Z " fill="#FBFBFA" transform="translate(456,566)"/>
<path d="M0 0 C0.33 0 0.66 0 1 0 C1.08710289 3.10398978 1.14042309 6.20766548 1.1875 9.3125 C1.21263672 10.19357422 1.23777344 11.07464844 1.26367188 11.98242188 C1.27817383 13.25375977 1.27817383 13.25375977 1.29296875 14.55078125 C1.31653442 15.72120972 1.31653442 15.72120972 1.34057617 16.9152832 C0.91141651 19.54223254 0.09154574 20.40240441 -2 22 C-4.41015625 22.3984375 -4.41015625 22.3984375 -7.0625 22.375 C-7.94035156 22.38273438 -8.81820312 22.39046875 -9.72265625 22.3984375 C-10.47417969 22.26695312 -11.22570312 22.13546875 -12 22 C-12.66 21.01 -13.32 20.02 -14 19 C-10 19 -10 19 -6.9375 19.3125 C-5.968125 19.209375 -4.99875 19.10625 -4 19 C-1.74493757 16.18634413 -1.01224943 14.51383132 -0.92578125 10.88671875 C-1.05339844 9.83097656 -1.18101562 8.77523437 -1.3125 7.6875 C-1.43238281 6.61886719 -1.55226563 5.55023437 -1.67578125 4.44921875 C-1.83626953 3.23685547 -1.83626953 3.23685547 -2 2 C-1.34 2 -0.68 2 0 2 C0 1.34 0 0.68 0 0 Z " fill="#9FAF99" transform="translate(566,569)"/>
<path d="M0 0 C0.99 0 1.98 0 3 0 C3 7.59 3 15.18 3 23 C2.01 23 1.02 23 0 23 C0 15.41 0 7.82 0 0 Z " fill="#AAB8A0" transform="translate(498,562)"/>
<path d="M0 0 C3.96 0 7.92 0 12 0 C12.33 0.66 12.66 1.32 13 2 C9.78548731 3.60725635 6.56387464 3.05748185 3 3 C3 5.31 3 7.62 3 10 C2.67 10 2.34 10 2 10 C1.67 13.96 1.34 17.92 1 22 C0.67 22 0.34 22 0 22 C0 14.74 0 7.48 0 0 Z " fill="#B1BBA9" transform="translate(453,563)"/>
<path d="M0 0 C0.99 0 1.98 0 3 0 C3.50615298 1.26839526 4.00469099 2.53983102 4.5 3.8125 C4.91765625 4.87404297 4.91765625 4.87404297 5.34375 5.95703125 C6 8 6 8 6 11 C6.66 11 7.32 11 8 11 C8.66 9.68 9.32 8.36 10 7 C11.25541557 10.76624671 10.37061958 12.37188934 9 16 C7.171875 15.90234375 7.171875 15.90234375 5 15 C3.515625 12.12890625 3.515625 12.12890625 2.25 8.5625 C1.82203125 7.38816406 1.3940625 6.21382812 0.953125 5.00390625 C0 2 0 2 0 0 Z " fill="#A3B59B" transform="translate(676,569)"/>
<path d="M0 0 C2.4375 1.1875 2.4375 1.1875 4 3 C4.25 5.6875 4.25 5.6875 4 8 C1.03 8 -1.94 8 -5 8 C-5 7.67 -5 7.34 -5 7 C-2.69 7 -0.38 7 2 7 C1.67 6.01 1.34 5.02 1 4 C-1.85778033 3.31506627 -1.85778033 3.31506627 -5 3 C-8.22404978 4.66954819 -8.22404978 4.66954819 -8.6875 7.625 C-8.790625 8.40875 -8.89375 9.1925 -9 10 C-9.33 10 -9.66 10 -10 10 C-10.35915493 3.65492958 -10.35915493 3.65492958 -8.9375 1.0625 C-5.87116726 -0.61903731 -3.42486249 -0.36051184 0 0 Z " fill="#A6B59E" transform="translate(774,569)"/>
<path d="M0 0 C0.66 0 1.32 0 2 0 C1.90234375 2.01822917 1.8046875 4.03645833 1.70703125 6.0546875 C1.80371094 6.69664062 1.90039062 7.33859375 2 8 C5.26281174 10.17520782 6.2340908 10.28244319 10 10 C10.99 9.67 11.98 9.34 13 9 C12.34 10.32 11.68 11.64 11 13 C3.73394495 13.60550459 3.73394495 13.60550459 0.5 10.9375 C-1.3208859 7.37159844 -1.38018944 4.95397022 -1 1 C-0.67 0.67 -0.34 0.34 0 0 Z " fill="#9FB19B" transform="translate(626,572)"/>
<path d="M0 0 C2.64 0 5.28 0 8 0 C8 0.66 8 1.32 8 2 C6.7934375 2.4640625 6.7934375 2.4640625 5.5625 2.9375 C2.76237398 4.7454438 2.76237398 4.7454438 2.4453125 7.640625 C2.20914409 10.43170617 2.05229711 13.19972753 2 16 C1.34 16 0.68 16 0 16 C0 10.72 0 5.44 0 0 Z " fill="#9BAF93" transform="translate(751,569)"/>
<path d="M0 0 C2.64 0 5.28 0 8 0 C8 0.66 8 1.32 8 2 C6.7934375 2.4640625 6.7934375 2.4640625 5.5625 2.9375 C2.76237398 4.7454438 2.76237398 4.7454438 2.4453125 7.640625 C2.20914409 10.43170617 2.05229711 13.19972753 2 16 C1.34 16 0.68 16 0 16 C0 10.72 0 5.44 0 0 Z " fill="#9AAF93" transform="translate(647,569)"/>
<path d="M0 0 C0.66 0 1.32 0 2 0 C2.8895125 7.8413948 3.00220537 15.16737959 2 23 C1.34 23 0.68 23 0 23 C0 15.41 0 7.82 0 0 Z " fill="#98AF90" transform="translate(708,562)"/>
<path d="M0 0 C4.29 0 8.58 0 13 0 C8.75 4.85714286 8.75 4.85714286 5.375 5.5 C2.62425404 4.92089559 1.64620804 4.25270574 0 2 C0 1.34 0 0.68 0 0 Z " fill="#F5F7F2" transform="translate(479,578)"/>
<path d="M0 0 C2.625 0.25 2.625 0.25 4.4375 1.625 C5.625 3.25 5.625 3.25 5.625 5.25 C1.995 5.25 -1.635 5.25 -5.375 5.25 C-2.90277778 0.30555556 -2.90277778 0.30555556 0 0 Z " fill="#E8EBE5" transform="translate(736.375,570.75)"/>
<path d="M0 0 C2.625 0.25 2.625 0.25 4.4375 1.625 C5.625 3.25 5.625 3.25 5.625 5.25 C1.995 5.25 -1.635 5.25 -5.375 5.25 C-2.90277778 0.30555556 -2.90277778 0.30555556 0 0 Z " fill="#F2F3F0" transform="translate(632.375,570.75)"/>
<path d="M0 0 C0.33 1.32 0.66 2.64 1 4 C-2.3 4 -5.6 4 -9 4 C-8.67 2.68 -8.34 1.36 -8 0 C-5.13822943 -1.43088528 -3.06624227 -0.59991697 0 0 Z " fill="#F4F6F2" transform="translate(775,572)"/>
<path d="M0 0 C2.00720923 0.28674418 4.0085944 0.61866701 6 1 C6.33 2.32 6.66 3.64 7 5 C3.7 5 0.4 5 -3 5 C-1 1 -1 1 0 0 Z " fill="#F5F5F2" transform="translate(482,571)"/>
<path d="M0 0 C0.99 0 1.98 0 3 0 C3.47792208 5.37662338 3.47792208 5.37662338 1.5625 7.875 C-2.25144551 9.5494151 -5.89579485 9.23678107 -10 9 C-9.67 8.34 -9.34 7.68 -9 7 C-6.93359375 6.3671875 -6.93359375 6.3671875 -4.4375 5.875 C-3.61121094 5.70742188 -2.78492188 5.53984375 -1.93359375 5.3671875 C-0.97646484 5.18542969 -0.97646484 5.18542969 0 5 C0 3.35 0 1.7 0 0 Z " fill="#9BAB91" transform="translate(468,576)"/>
<path d="M0 0 C0.66 0 1.32 0 2 0 C2.9360342 3.79267192 2.98276252 6.93674565 2.5625 10.8125 C2.40974609 12.27623047 2.40974609 12.27623047 2.25390625 13.76953125 C2.17011719 14.50558594 2.08632813 15.24164062 2 16 C1.34 16 0.68 16 0 16 C0 10.72 0 5.44 0 0 Z " fill="#8DA682" transform="translate(530,569)"/>
<path d="M0 0 C0.33 0 0.66 0 1 0 C1 5.61 1 11.22 1 17 C0.34 17 -0.32 17 -1 17 C-1.33 12.05 -1.66 7.1 -2 2 C-1.34 2 -0.68 2 0 2 C0 1.34 0 0.68 0 0 Z " fill="#93A98A" transform="translate(566,569)"/>
<path d="M0 0 C0.66 0 1.32 0 2 0 C1.47784461 3.7595188 0.82726947 6.36771463 -2 9 C-5.1875 9.25 -5.1875 9.25 -8 9 C-8.33 8.34 -8.66 7.68 -9 7 C-7.88625 6.773125 -6.7725 6.54625 -5.625 6.3125 C-1.83961627 5.39376342 -1.83961627 5.39376342 -0.5625 2.375 C-0.376875 1.59125 -0.19125 0.8075 0 0 Z " fill="#9AAF96" transform="translate(666,582)"/>
<path d="M0 0 C0.66 0 1.32 0 2 0 C1.35550393 3.01217112 0.34977818 5.51655836 -1.0625 8.25 C-1.42472656 8.95640625 -1.78695312 9.6628125 -2.16015625 10.390625 C-2.43730469 10.92171875 -2.71445312 11.4528125 -3 12 C-3.88336837 9.5332355 -4.1312406 8.36140628 -3.22265625 5.859375 C-2.83980469 5.16328125 -2.45695313 4.4671875 -2.0625 3.75 C-1.68222656 3.04359375 -1.30195312 2.3371875 -0.91015625 1.609375 C-0.60980469 1.07828125 -0.30945313 0.5471875 0 0 Z " fill="#A0B396" transform="translate(672,569)"/>
<path d="M0 0 C0.66 0.33 1.32 0.66 2 1 C2 1.66 2 2.32 2 3 C1.34 3 0.68 3 0 3 C-0.33 5.31 -0.66 7.62 -1 10 C-1.99 10.33 -2.98 10.66 -4 11 C-4.49230769 4.6 -4.49230769 4.6 -2 1.5625 C-1.34 1.046875 -0.68 0.53125 0 0 Z " fill="#AEBCA2" transform="translate(511,569)"/>
<path d="M0 0 C1.25541557 3.76624671 0.37061958 5.37188934 -1 9 C-1.99 9 -2.98 9 -4 9 C-4 8.01 -4 7.02 -4 6 C-3.34 6 -2.68 6 -2 6 C-1.855625 5.195625 -1.71125 4.39125 -1.5625 3.5625 C-1 1 -1 1 0 0 Z " fill="#9AAE91" transform="translate(686,576)"/>
<path d="M0 0 C4.23830976 2.82553984 3.97715348 5.12180888 5 10 C4.01 10 3.02 10 2 10 C1.34 6.7 0.68 3.4 0 0 Z " fill="#9BB094" transform="translate(691,575)"/>
<path d="M0 0 C0.66 0 1.32 0 2 0 C2 3.3 2 6.6 2 10 C1.34 10 0.68 10 0 10 C-1.49106457 7.01787087 -1.11941467 4.28390342 -1 1 C-0.67 0.67 -0.34 0.34 0 0 Z " fill="#96AB8C" transform="translate(626,572)"/>
<path d="M0 0 C2.5 -0.375 2.5 -0.375 5 0 C5.66 0.99 6.32 1.98 7 3 C4.03 3 1.06 3 -2 3 C-1.34 2.01 -0.68 1.02 0 0 Z " fill="#FEFEFD" transform="translate(735,572)"/>
<path d="M0 0 C2.64 0 5.28 0 8 0 C8 0.66 8 1.32 8 2 C5.09399739 3.25664978 3.20395416 4 0 4 C0 2.68 0 1.36 0 0 Z " fill="#A7B39E" transform="translate(647,569)"/>
<path d="M0 0 C0.99 0.33 1.98 0.66 3 1 C1.68 3.64 0.36 6.28 -1 9 C-1.33 9 -1.66 9 -2 9 C-1.125 2.25 -1.125 2.25 0 0 Z " fill="#9CAD92" transform="translate(619,569)"/>
<path d="M0 0 C2.31 0.33 4.62 0.66 7 1 C7.33 2.32 7.66 3.64 8 5 C5.03 4.01 2.06 3.02 -1 2 C-0.67 1.34 -0.34 0.68 0 0 Z " fill="#9BAB91" transform="translate(482,569)"/>
<path d="M0 0 C0.99 0 1.98 0 3 0 C3 1.98 3 3.96 3 6 C1.02 6.99 1.02 6.99 -1 8 C-0.67 5.36 -0.34 2.72 0 0 Z " fill="#93A68B" transform="translate(468,576)"/>
<path d="M0 0 C6.52307692 -0.36923077 6.52307692 -0.36923077 8.9375 1.5 C9.288125 1.995 9.63875 2.49 10 3 C5.82412255 4.39195915 3.86525224 2.82323219 0 1 C0 0.67 0 0.34 0 0 Z " fill="#B0BCA9" transform="translate(733,569)"/>
<path d="M0 0 C2.125 0.375 2.125 0.375 4 1 C3.0409375 1.5878125 3.0409375 1.5878125 2.0625 2.1875 C-0.43778819 4.38472296 -0.64950425 5.75791433 -1 9 C-1.33 9 -1.66 9 -2 9 C-2.125 5.625 -2.125 5.625 -2 2 C-1.34 1.34 -0.68 0.68 0 0 Z " fill="#9FB295" transform="translate(766,570)"/>
<path d="M0 0 C0.66 0.33 1.32 0.66 2 1 C0.84826645 3.46800047 -0.04783565 5.04783565 -2 7 C-2.6875 5.1875 -2.6875 5.1875 -3 3 C-1.5625 1.25 -1.5625 1.25 0 0 Z " fill="#ABBA9D" transform="translate(480,569)"/>
</svg>
